<mxfile host="app.diagrams.net" modified="2020-05-04T14:40:13.848Z" agent="5.0 (X11; Linux x86_64) AppleWebKit/537.36 (KHTML, like Gecko) Chrome/81.0.4044.129 Safari/537.36" etag="ejKEA_VWY8qEw8lHMa4z" version="13.0.6" type="github">
  <diagram name="Page-1" id="74e2e168-ea6b-b213-b513-2b3c1d86103e">
    <mxGraphModel dx="813" dy="461" grid="1" gridSize="10" guides="1" tooltips="1" connect="1" arrows="1" fold="1" page="1" pageScale="1" pageWidth="1100" pageHeight="850" background="#ffffff" math="0" shadow="0">
      <root>
        <mxCell id="0" />
        <mxCell id="1" parent="0" />
        <mxCell id="dRU89q8eOrirs1p44v0o-1" value="Un étudiant demande la liste des exercices sans cache rempli." style="swimlane;html=1;childLayout=stackLayout;startSize=20;rounded=0;shadow=0;labelBackgroundColor=none;strokeWidth=1;fontFamily=Verdana;fontSize=8;align=center;" vertex="1" parent="1">
          <mxGeometry x="70" y="40" width="800" height="680" as="geometry" />
        </mxCell>
        <mxCell id="dRU89q8eOrirs1p44v0o-2" value="Extension" style="swimlane;html=1;startSize=20;" vertex="1" parent="dRU89q8eOrirs1p44v0o-1">
          <mxGeometry y="20" width="160" height="660" as="geometry" />
        </mxCell>
        <mxCell id="dRU89q8eOrirs1p44v0o-3" value="L&#39;étudiant pose une question." style="rounded=1;whiteSpace=wrap;html=1;shadow=0;labelBackgroundColor=none;strokeWidth=1;fontFamily=Verdana;fontSize=8;align=center;" vertex="1" parent="dRU89q8eOrirs1p44v0o-2">
          <mxGeometry x="20" y="30" width="100" height="60" as="geometry" />
        </mxCell>
        <mxCell id="dRU89q8eOrirs1p44v0o-4" value="L&#39;étudiant reçoit la liste des questions." style="rounded=1;whiteSpace=wrap;html=1;shadow=0;labelBackgroundColor=none;strokeWidth=1;fontFamily=Verdana;fontSize=8;align=center;" vertex="1" parent="dRU89q8eOrirs1p44v0o-2">
          <mxGeometry x="20" y="500" width="100" height="60" as="geometry" />
        </mxCell>
        <mxCell id="dRU89q8eOrirs1p44v0o-5" value="" style="ellipse;html=1;shape=endState;fillColor=#000000;strokeColor=#ff0000;fontSize=7;" vertex="1" parent="dRU89q8eOrirs1p44v0o-2">
          <mxGeometry x="55" y="620" width="30" height="30" as="geometry" />
        </mxCell>
        <mxCell id="dRU89q8eOrirs1p44v0o-6" value="" style="endArrow=classic;html=1;fontSize=7;exitX=0.5;exitY=1;exitDx=0;exitDy=0;entryX=0.5;entryY=0;entryDx=0;entryDy=0;" edge="1" parent="dRU89q8eOrirs1p44v0o-2" source="dRU89q8eOrirs1p44v0o-4" target="dRU89q8eOrirs1p44v0o-5">
          <mxGeometry width="50" height="50" relative="1" as="geometry">
            <mxPoint x="300" y="460" as="sourcePoint" />
            <mxPoint x="350" y="410" as="targetPoint" />
          </mxGeometry>
        </mxCell>
        <mxCell id="dRU89q8eOrirs1p44v0o-7" style="edgeStyle=orthogonalEdgeStyle;rounded=1;html=1;labelBackgroundColor=none;startArrow=none;startFill=0;startSize=5;endArrow=classicThin;endFill=1;endSize=5;jettySize=auto;orthogonalLoop=1;strokeWidth=1;fontFamily=Verdana;fontSize=8" edge="1" parent="dRU89q8eOrirs1p44v0o-1" source="dRU89q8eOrirs1p44v0o-3" target="dRU89q8eOrirs1p44v0o-20">
          <mxGeometry relative="1" as="geometry" />
        </mxCell>
        <mxCell id="dRU89q8eOrirs1p44v0o-8" style="edgeStyle=orthogonalEdgeStyle;rounded=1;html=1;labelBackgroundColor=none;startArrow=none;startFill=0;startSize=5;endArrow=classicThin;endFill=1;endSize=5;jettySize=auto;orthogonalLoop=1;strokeWidth=1;fontFamily=Verdana;fontSize=8" edge="1" parent="dRU89q8eOrirs1p44v0o-1">
          <mxGeometry relative="1" as="geometry">
            <mxPoint x="600" y="690" as="sourcePoint" />
          </mxGeometry>
        </mxCell>
        <mxCell id="dRU89q8eOrirs1p44v0o-9" style="edgeStyle=orthogonalEdgeStyle;rounded=1;html=1;labelBackgroundColor=none;startArrow=none;startFill=0;startSize=5;endArrow=classicThin;endFill=1;endSize=5;jettySize=auto;orthogonalLoop=1;strokeWidth=1;fontFamily=Verdana;fontSize=8" edge="1" parent="dRU89q8eOrirs1p44v0o-1">
          <mxGeometry relative="1" as="geometry">
            <mxPoint x="670" y="450" as="targetPoint" />
          </mxGeometry>
        </mxCell>
        <mxCell id="dRU89q8eOrirs1p44v0o-10" style="edgeStyle=orthogonalEdgeStyle;rounded=1;html=1;labelBackgroundColor=none;startArrow=none;startFill=0;startSize=5;endArrow=classicThin;endFill=1;endSize=5;jettySize=auto;orthogonalLoop=1;strokeWidth=1;fontFamily=Verdana;fontSize=8" edge="1" parent="dRU89q8eOrirs1p44v0o-1">
          <mxGeometry relative="1" as="geometry">
            <Array as="points">
              <mxPoint x="660" y="610" />
              <mxPoint x="660" y="550" />
              <mxPoint x="400" y="550" />
            </Array>
            <mxPoint x="400.0344827586207" y="580" as="targetPoint" />
          </mxGeometry>
        </mxCell>
        <mxCell id="dRU89q8eOrirs1p44v0o-11" style="edgeStyle=orthogonalEdgeStyle;rounded=1;html=1;labelBackgroundColor=none;startArrow=none;startFill=0;startSize=5;endArrow=classicThin;endFill=1;endSize=5;jettySize=auto;orthogonalLoop=1;strokeColor=#000000;strokeWidth=1;fontFamily=Verdana;fontSize=8;fontColor=#000000;" edge="1" parent="dRU89q8eOrirs1p44v0o-1">
          <mxGeometry relative="1" as="geometry">
            <mxPoint x="610" y="610" as="targetPoint" />
          </mxGeometry>
        </mxCell>
        <mxCell id="dRU89q8eOrirs1p44v0o-12" style="edgeStyle=orthogonalEdgeStyle;rounded=1;html=1;labelBackgroundColor=none;startArrow=none;startFill=0;startSize=5;endArrow=classicThin;endFill=1;endSize=5;jettySize=auto;orthogonalLoop=1;strokeWidth=1;fontFamily=Verdana;fontSize=8" edge="1" parent="dRU89q8eOrirs1p44v0o-1">
          <mxGeometry relative="1" as="geometry">
            <Array as="points">
              <mxPoint x="660" y="610" />
              <mxPoint x="660" y="550" />
              <mxPoint x="80" y="550" />
            </Array>
            <mxPoint x="80.0344827586207" y="580" as="targetPoint" />
          </mxGeometry>
        </mxCell>
        <mxCell id="dRU89q8eOrirs1p44v0o-13" style="edgeStyle=orthogonalEdgeStyle;rounded=1;html=1;labelBackgroundColor=none;startArrow=none;startFill=0;startSize=5;endArrow=classicThin;endFill=1;endSize=5;jettySize=auto;orthogonalLoop=1;strokeWidth=1;fontFamily=Verdana;fontSize=8" edge="1" parent="dRU89q8eOrirs1p44v0o-1">
          <mxGeometry relative="1" as="geometry">
            <Array as="points">
              <mxPoint x="80" y="650" />
              <mxPoint x="490" y="650" />
              <mxPoint x="490" y="610" />
            </Array>
            <mxPoint x="80.0344827586207" y="640" as="sourcePoint" />
          </mxGeometry>
        </mxCell>
        <mxCell id="dRU89q8eOrirs1p44v0o-14" style="edgeStyle=orthogonalEdgeStyle;rounded=1;html=1;labelBackgroundColor=none;startArrow=none;startFill=0;startSize=5;endArrow=classicThin;endFill=1;endSize=5;jettySize=auto;orthogonalLoop=1;strokeWidth=1;fontFamily=Verdana;fontSize=8" edge="1" parent="dRU89q8eOrirs1p44v0o-1">
          <mxGeometry relative="1" as="geometry">
            <mxPoint x="450" y="610" as="sourcePoint" />
          </mxGeometry>
        </mxCell>
        <mxCell id="dRU89q8eOrirs1p44v0o-15" value="" style="endArrow=classic;html=1;fontSize=7;exitX=0.25;exitY=1;exitDx=0;exitDy=0;entryX=1;entryY=0.5;entryDx=0;entryDy=0;entryPerimeter=0;" edge="1" parent="dRU89q8eOrirs1p44v0o-1" source="dRU89q8eOrirs1p44v0o-18" target="dRU89q8eOrirs1p44v0o-4">
          <mxGeometry width="50" height="50" relative="1" as="geometry">
            <mxPoint x="239.3" y="519.9999999999999" as="sourcePoint" />
            <mxPoint x="120.00000000000006" y="545.3999999999999" as="targetPoint" />
            <Array as="points">
              <mxPoint x="215" y="550" />
            </Array>
          </mxGeometry>
        </mxCell>
        <mxCell id="dRU89q8eOrirs1p44v0o-16" value="API" style="swimlane;html=1;startSize=20;" vertex="1" parent="dRU89q8eOrirs1p44v0o-1">
          <mxGeometry x="160" y="20" width="160" height="660" as="geometry" />
        </mxCell>
        <mxCell id="dRU89q8eOrirs1p44v0o-17" style="edgeStyle=orthogonalEdgeStyle;rounded=1;html=1;labelBackgroundColor=none;startArrow=none;startFill=0;startSize=5;endArrow=classicThin;endFill=1;endSize=5;jettySize=auto;orthogonalLoop=1;strokeWidth=1;fontFamily=Verdana;fontSize=8;exitX=0.5;exitY=1;exitDx=0;exitDy=0;" edge="1" parent="dRU89q8eOrirs1p44v0o-16" source="dRU89q8eOrirs1p44v0o-20" target="dRU89q8eOrirs1p44v0o-21">
          <mxGeometry relative="1" as="geometry">
            <mxPoint x="110" y="120" as="sourcePoint" />
          </mxGeometry>
        </mxCell>
        <mxCell id="dRU89q8eOrirs1p44v0o-18" value="API a la liste des exercices" style="rounded=1;whiteSpace=wrap;html=1;shadow=0;labelBackgroundColor=none;strokeWidth=1;fontFamily=Verdana;fontSize=8;align=center;" vertex="1" parent="dRU89q8eOrirs1p44v0o-16">
          <mxGeometry x="30" y="365" width="100" height="60" as="geometry" />
        </mxCell>
        <mxCell id="dRU89q8eOrirs1p44v0o-20" value="La question est reçue par l&#39;API." style="rounded=1;whiteSpace=wrap;html=1;shadow=0;labelBackgroundColor=none;strokeWidth=1;fontFamily=Verdana;fontSize=8;align=center;" vertex="1" parent="dRU89q8eOrirs1p44v0o-16">
          <mxGeometry x="30" y="40" width="100" height="60" as="geometry" />
        </mxCell>
        <mxCell id="dRU89q8eOrirs1p44v0o-21" value="Texte is like &quot;liste des exercices&quot;" style="rhombus;whiteSpace=wrap;html=1;rounded=0;shadow=0;labelBackgroundColor=none;strokeWidth=1;fontFamily=Verdana;fontSize=8;align=center;" vertex="1" parent="dRU89q8eOrirs1p44v0o-16">
          <mxGeometry x="40" y="120" width="80" height="60" as="geometry" />
        </mxCell>
        <mxCell id="dRU89q8eOrirs1p44v0o-24" value="CACHE" style="swimlane;html=1;startSize=20;" vertex="1" parent="dRU89q8eOrirs1p44v0o-1">
          <mxGeometry x="320" y="20" width="160" height="660" as="geometry" />
        </mxCell>
        <mxCell id="dRU89q8eOrirs1p44v0o-26" value="&lt;span style=&quot;color: rgb(0, 0, 0); font-family: verdana; font-style: normal; font-weight: 400; letter-spacing: normal; text-align: center; text-indent: 0px; text-transform: none; word-spacing: 0px; background-color: rgb(248, 249, 250); float: none; display: inline; font-size: 7px;&quot;&gt;&lt;font style=&quot;font-size: 7px;&quot;&gt;Liste des exercices in cache&lt;/font&gt;&lt;/span&gt;" style="rhombus;whiteSpace=wrap;html=1;rounded=0;shadow=0;labelBackgroundColor=none;strokeWidth=1;fontFamily=Verdana;fontSize=7;align=center;" vertex="1" parent="dRU89q8eOrirs1p44v0o-24">
          <mxGeometry x="40" y="120" width="80" height="60" as="geometry" />
        </mxCell>
        <mxCell id="dRU89q8eOrirs1p44v0o-29" value="Chatterbot" style="swimlane;html=1;startSize=20;" vertex="1" parent="dRU89q8eOrirs1p44v0o-1">
          <mxGeometry x="480" y="20" width="160" height="660" as="geometry" />
        </mxCell>
        <mxCell id="dRU89q8eOrirs1p44v0o-30" style="edgeStyle=orthogonalEdgeStyle;rounded=1;html=1;labelBackgroundColor=none;startArrow=none;startFill=0;startSize=5;endArrow=classicThin;endFill=1;endSize=5;jettySize=auto;orthogonalLoop=1;strokeWidth=1;fontFamily=Verdana;fontSize=8" edge="1" parent="dRU89q8eOrirs1p44v0o-29">
          <mxGeometry relative="1" as="geometry">
            <mxPoint x="80.0344827586207" y="399.9999999999999" as="targetPoint" />
          </mxGeometry>
        </mxCell>
        <mxCell id="dRU89q8eOrirs1p44v0o-31" style="edgeStyle=orthogonalEdgeStyle;rounded=1;html=1;labelBackgroundColor=none;startArrow=none;startFill=0;startSize=5;endArrow=classicThin;endFill=1;endSize=5;jettySize=auto;orthogonalLoop=1;strokeWidth=1;fontFamily=Verdana;fontSize=8" edge="1" parent="dRU89q8eOrirs1p44v0o-29">
          <mxGeometry relative="1" as="geometry">
            <mxPoint x="80.0344827586207" y="620" as="sourcePoint" />
          </mxGeometry>
        </mxCell>
        <mxCell id="dRU89q8eOrirs1p44v0o-32" value="Database" style="swimlane;html=1;startSize=20;" vertex="1" parent="dRU89q8eOrirs1p44v0o-1">
          <mxGeometry x="640" y="20" width="160" height="660" as="geometry" />
        </mxCell>
        <mxCell id="dRU89q8eOrirs1p44v0o-33" style="edgeStyle=orthogonalEdgeStyle;rounded=1;html=1;labelBackgroundColor=none;startArrow=none;startFill=0;startSize=5;endArrow=classicThin;endFill=1;endSize=5;jettySize=auto;orthogonalLoop=1;strokeWidth=1;fontFamily=Verdana;fontSize=8" edge="1" parent="dRU89q8eOrirs1p44v0o-32">
          <mxGeometry relative="1" as="geometry">
            <mxPoint x="80.0344827586207" y="480" as="targetPoint" />
          </mxGeometry>
        </mxCell>
        <mxCell id="dRU89q8eOrirs1p44v0o-34" style="edgeStyle=orthogonalEdgeStyle;rounded=1;html=1;labelBackgroundColor=none;startArrow=none;startFill=0;startSize=5;endArrow=classicThin;endFill=1;endSize=5;jettySize=auto;orthogonalLoop=1;strokeWidth=1;fontFamily=Verdana;fontSize=8" edge="1" parent="dRU89q8eOrirs1p44v0o-32">
          <mxGeometry relative="1" as="geometry">
            <mxPoint x="80.0344827586207" y="560" as="targetPoint" />
          </mxGeometry>
        </mxCell>
        <mxCell id="dRU89q8eOrirs1p44v0o-36" value="Oui" style="endArrow=classic;html=1;fontSize=7;exitX=1;exitY=0.5;exitDx=0;exitDy=0;" edge="1" parent="dRU89q8eOrirs1p44v0o-1" source="dRU89q8eOrirs1p44v0o-21" target="dRU89q8eOrirs1p44v0o-26">
          <mxGeometry y="22" width="50" height="50" relative="1" as="geometry">
            <mxPoint x="460" y="300" as="sourcePoint" />
            <mxPoint x="510" y="250" as="targetPoint" />
            <Array as="points">
              <mxPoint x="320" y="170" />
            </Array>
            <mxPoint x="-20" y="12" as="offset" />
          </mxGeometry>
        </mxCell>
        <mxCell id="dRU89q8eOrirs1p44v0o-37" value="Oui" style="endArrow=classic;html=1;fontSize=7;exitX=0.5;exitY=1;exitDx=0;exitDy=0;entryX=0.5;entryY=0;entryDx=0;entryDy=0;" edge="1" parent="dRU89q8eOrirs1p44v0o-1" source="dRU89q8eOrirs1p44v0o-26">
          <mxGeometry x="0.0526" y="-10" width="50" height="50" relative="1" as="geometry">
            <mxPoint x="460" y="300" as="sourcePoint" />
            <mxPoint x="240" y="230" as="targetPoint" />
            <Array as="points">
              <mxPoint x="400" y="210" />
              <mxPoint x="240" y="210" />
              <mxPoint x="240" y="220" />
            </Array>
            <mxPoint as="offset" />
          </mxGeometry>
        </mxCell>
      </root>
    </mxGraphModel>
  </diagram>
</mxfile>
